<?xml version="1.0" encoding="utf-8"?>
<!-- Generator: Adobe Illustrator 22.0.1, SVG Export Plug-In . SVG Version: 6.00 Build 0)  -->
<svg version="1.1" id="Layer_1" xmlns="http://www.w3.org/2000/svg" xmlns:xlink="http://www.w3.org/1999/xlink" x="0px" y="0px"
	 viewBox="0 0 95 85" style="enable-background:new 0 0 95 85;" xml:space="preserve">
<style type="text/css">
	.st0{fill:#FFFFFF;}
</style>
<path class="st0" d="M94.71,79.94V5.06c0-1.41-1.15-2.56-2.58-2.56H2.87c-1.42,0-2.58,1.15-2.58,2.56v74.88
	c0,1.41,1.15,2.56,2.58,2.56h89.26C93.55,82.5,94.71,81.36,94.71,79.94z M20.54,18.29c-0.23-0.09-0.37-0.34-0.37-0.59V8.17
	c0-0.25,0.14-0.48,0.37-0.59c0.23-0.11,0.49-0.09,0.69,0.07l6.26,4.76c0.16,0.12,0.26,0.32,0.26,0.52c0,0.2-0.1,0.4-0.26,0.52
	l-6.26,4.76C21.07,18.35,20.75,18.37,20.54,18.29z M13.53,18.22l-6.26-4.76c-0.16-0.12-0.26-0.32-0.26-0.52c0-0.2,0.1-0.4,0.26-0.52
	l6.26-4.76c0.2-0.15,0.47-0.18,0.69-0.07c0.22,0.11,0.37,0.34,0.37,0.59v9.53c0,0.25-0.14,0.48-0.37,0.59
	C14,18.4,13.77,18.39,13.53,18.22z M90.09,77.91H4.91V23.41h85.18V77.91z"/>
<path class="st0" d="M80.03,31.83H56.01v26.42h24.01V31.83z"/>
<path class="st0" d="M49.66,31.8H14.97v3.6h34.69V31.8z"/>
<path class="st0" d="M49.66,43.23H14.97v3.6h34.69V43.23z"/>
<path class="st0" d="M49.66,54.65H14.97v3.6h34.69V54.65z"/>
<path class="st0" d="M80.03,66.08H14.97v3.6h65.05V66.08z"/>
</svg>
