<?xml version="1.0" encoding="utf-8"?>
<!-- Generator: Adobe Illustrator 22.0.1, SVG Export Plug-In . SVG Version: 6.00 Build 0)  -->
<svg version="1.1" id="Layer_1" xmlns="http://www.w3.org/2000/svg" xmlns:xlink="http://www.w3.org/1999/xlink" x="0px" y="0px"
	 viewBox="0 0 105 85" style="enable-background:new 0 0 105 85;" xml:space="preserve">
<style type="text/css">
	.st0{fill:#FFFFFF;}
</style>
<path class="st0" d="M5.89,65.81h49.4c-0.08-0.89-0.13-1.8-0.13-2.71c0-16.56,13.32-29.99,29.74-29.99c0.85,0,1.69,0.04,2.52,0.12
	V5.99L46.45,42.17c-0.46,0.41-1.03,0.61-1.61,0.61c-0.57,0-1.15-0.2-1.61-0.61L2.26,5.99v56.54L5.89,65.81z"/>
<path class="st0" d="M83.97,2.5H5.71l39.13,34.55L83.97,2.5z"/>
<path class="st0" d="M84.37,38.49c-12.77,0-23.41,9.63-23.41,24.28c0,13.34,9.29,19.73,19.67,19.73c3.68,0,7.01-0.78,10.17-2.51
	l-1.66-4.19c-2.18,1.15-5.19,2.04-7.89,2.04c-8.1,0-15.16-4.97-15.16-15.28c0-11.77,8.77-19.41,17.65-19.41
	c10.17,0,14.17,6.7,14.17,14.18c0,5.76-3.06,9.42-6.18,9.42c-2.34,0-3.11-1.46-2.39-4.5l2.39-11.51h-4.72l-0.73,2.2h-0.1
	c-0.88-1.88-2.23-2.62-3.94-2.62c-5.97,0-10.48,6.44-10.48,12.82c0,4.81,2.75,7.85,6.85,7.85c2.13,0,4.78-1.41,6.23-3.45h0.1
	c0.57,2.51,3.01,3.98,5.97,3.98c5.45,0,11.83-4.81,11.83-14.39C102.74,46.18,95.58,38.49,84.37,38.49z M83.64,63.82
	c-1.3,1.73-2.34,2.36-3.43,2.36c-1.71,0-2.7-1.15-2.7-3.51c0-3.14,1.87-7.43,4.98-7.43c1.04,0,1.87,0.52,2.39,1.52L83.64,63.82z"/>
</svg>
