<?xml version="1.0" encoding="utf-8"?>
<!-- Generator: Adobe Illustrator 22.0.1, SVG Export Plug-In . SVG Version: 6.00 Build 0)  -->
<svg version="1.1" id="Layer_1" xmlns="http://www.w3.org/2000/svg" xmlns:xlink="http://www.w3.org/1999/xlink" x="0px" y="0px"
	 viewBox="0 0 85 80" style="enable-background:new 0 0 85 80;" xml:space="preserve">
<style type="text/css">
	.st0{fill:none;stroke:#FFFFFF;stroke-width:3;stroke-miterlimit:10;}
	.st1{fill:#FFFFFF;}
	.st2{fill:#8CC640;}
</style>
<path class="st0" d="M82.95,21.97V74.6H2.04V21.97H82.95z"/>
<path class="st1" d="M80.95,7H4.05c-1.92,0-3.5,1.59-3.5,3.53v12.01h83.89V10.54C84.44,8.59,82.87,7,80.95,7z"/>
<path class="st1" d="M79.01,30.91v39.62H4.11v-0.18L21.18,53.1l9.41,9.33L52.7,39.89l8.71,8.8L79.01,30.91z"/>
<path class="st2" d="M8.32,14.19c1.26,0,2.28,1.01,2.28,2.26c0,1.25-1.02,2.26-2.28,2.26c-1.26,0-2.28-1.01-2.28-2.26
	C6.03,15.2,7.06,14.19,8.32,14.19z"/>
<path class="st2" d="M15.52,14.19c1.26,0,2.28,1.01,2.28,2.26c0,1.25-1.02,2.26-2.28,2.26c-1.26,0-2.28-1.01-2.28-2.26
	C13.24,15.2,14.26,14.19,15.52,14.19z"/>
<path class="st2" d="M22.72,14.19c1.26,0,2.28,1.01,2.28,2.26c0,1.25-1.02,2.26-2.28,2.26c-1.26,0-2.28-1.01-2.28-2.26
	C20.44,15.2,21.46,14.19,22.72,14.19z"/>
</svg>
