<?xml version="1.0" encoding="utf-8"?>
<!-- Generator: Adobe Illustrator 22.0.1, SVG Export Plug-In . SVG Version: 6.00 Build 0)  -->
<svg version="1.1" id="Layer_1" xmlns="http://www.w3.org/2000/svg" xmlns:xlink="http://www.w3.org/1999/xlink" x="0px" y="0px"
	 viewBox="0 0 85 85" style="enable-background:new 0 0 85 85;" xml:space="preserve">
<style type="text/css">
	.st0{fill:#FFFFFF;}
	.st1{fill:#8CC640;}
</style>
<path class="st0" d="M44.32,77.51v-1.13c1.83-1.04,2.48-3.36,1.44-5.19c-1.04-1.83-3.36-2.48-5.19-1.44
	c-1.83,1.04-2.48,3.36-1.44,5.19c0.34,0.6,0.84,1.1,1.44,1.44v1.13c-3.55,0.17-5.36,2.57-5.36,4.18v1.32h14.46v-1.33
	C49.68,80.07,47.87,77.67,44.32,77.51z"/>
<path class="st0" d="M77.1,61.95v-1.13c1.83-1.04,2.48-3.36,1.44-5.19c-1.04-1.83-3.36-2.48-5.19-1.44
	c-1.83,1.04-2.48,3.36-1.44,5.19c0.34,0.6,0.84,1.1,1.44,1.44v1.13c-3.55,0.17-5.36,2.57-5.36,4.18v1.33h14.46v-1.33
	C82.45,64.52,80.65,62.11,77.1,61.95z"/>
<path class="st0" d="M11.56,61.95v-1.13c1.83-1.04,2.48-3.36,1.44-5.19c-1.03-1.83-3.36-2.48-5.19-1.44
	c-1.83,1.04-2.48,3.36-1.44,5.19c0.34,0.6,0.84,1.1,1.44,1.44v1.13c-3.55,0.17-5.36,2.57-5.36,4.18v1.33h14.46v-1.33
	C16.91,64.52,15.11,62.11,11.56,61.95z"/>
<path class="st0" d="M77.1,26.8v-1.13c1.83-1.04,2.48-3.36,1.44-5.19c-1.04-1.83-3.36-2.48-5.19-1.44
	c-1.83,1.04-2.48,3.36-1.44,5.19c0.34,0.6,0.84,1.1,1.44,1.44v1.13c-3.55,0.17-5.36,2.57-5.36,4.18v1.32h14.46v-1.32
	C82.45,29.36,80.65,26.96,77.1,26.8z"/>
<path class="st0" d="M11.56,26.8v-1.13c1.83-1.04,2.48-3.36,1.44-5.19c-1.04-1.83-3.36-2.48-5.19-1.44
	c-1.83,1.04-2.48,3.36-1.44,5.19c0.34,0.6,0.84,1.1,1.44,1.44v1.13c-3.55,0.17-5.36,2.57-5.36,4.18v1.32h14.46v-1.32
	C16.91,29.36,15.11,26.96,11.56,26.8z"/>
<path class="st0" d="M44.32,11.25v-1.12c1.83-1.04,2.48-3.36,1.44-5.19c-1.04-1.83-3.36-2.48-5.19-1.44
	c-1.83,1.04-2.48,3.36-1.44,5.19c0.34,0.6,0.84,1.1,1.44,1.44v1.12c-3.55,0.17-5.36,2.57-5.36,4.18v1.32h14.46v-1.32
	C49.68,13.81,47.87,11.41,44.32,11.25z"/>
<path class="st0" d="M41.89,15.91h1.25v54.12h-1.25V15.91z"/>
<path class="st0" d="M70.99,31.66L12.17,57.5l-0.5-1.14l58.82-25.84L70.99,31.66z"/>
<path class="st0" d="M73.08,56.25l-0.5,1.14l-58.8-25.86l0.5-1.14L73.08,56.25z"/>
<path class="st0" d="M42.45,27.64c8.54,0,15.47,6.93,15.47,15.48c0,8.55-6.93,15.48-15.47,15.48c-8.54,0-15.47-6.93-15.47-15.48
	C26.98,34.57,33.9,27.64,42.45,27.64z"/>
<path class="st1" d="M44.46,44.65v-1.25c2.04-1.16,2.75-3.75,1.6-5.8c-1.15-2.04-3.74-2.76-5.78-1.61c-2.04,1.16-2.75,3.75-1.6,5.8
	c0.38,0.67,0.93,1.22,1.6,1.61v1.25c-3.95,0.19-5.96,2.86-5.96,4.67v1.47h16.09v-1.48C50.42,47.51,48.41,44.83,44.46,44.65z"/>
</svg>
