<?xml version="1.0" encoding="utf-8"?>
<!-- Generator: Adobe Illustrator 28.1.0, SVG Export Plug-In . SVG Version: 6.00 Build 0)  -->
<svg version="1.1" xmlns="http://www.w3.org/2000/svg" xmlns:xlink="http://www.w3.org/1999/xlink" x="0px" y="0px"
	 viewBox="0 0 3000 2000" enable-background="new 0 0 3000 2000" xml:space="preserve">
<g id="Layer_1">
	<rect x="50" y="50" fill="#FFFFFF" width="2900" height="1900"/>
</g>
<g id="Layer_4">
	<g opacity="0.1">
		<path fill="#C0E3EE" d="M2558.2,1723.3c29.7-99.4,45.7-204.7,45.7-313.8c0-604.3-489.8-1094.1-1094.1-1094.1
			c-604.3,0-1094.1,489.8-1094.1,1094.1c0,109,16,214.4,45.7,313.8H2558.2z"/>
	</g>
	<g>
		<g>
			<g>
				<g>
					<path fill="#C0E3EE" d="M521.9,1300.6c-18.9-18-41.6-24-65.4-25.2c-3.4-0.2-6.8-0.2-10.3-0.2c-14.7-2.3-37.1,3.8-35.6,18.1
						c2.1,17.2,28.2,17.6,44.1,15.4c25.6,0.5,51.2-2.9,63.8-6.2"/>
				</g>
			</g>
			<g>
				<g>
					<path fill="#C0E3EE" d="M564.1,1327.2c-41.7-22.7-85.2,0.3-126.1,13.4c16.9,32.3,100,2.4,123.6-10.9"/>
				</g>
			</g>
			<g>
				<g>
					<path fill="#C0E3EE" d="M605.4,1353.6c-2.9-0.8-5.7-1.4-8.5-1.9c-2.8-0.4-5.6-0.6-8.3-0.7c-13.8-0.1-27.1,3.1-39.5,9.9
						c-2.5,1.2-5.1,2.5-7.6,3.8c-2.9,1.5-5.7,3.2-8.5,4.8c-8.4,5.3-17.4,10.3-25.1,15.7c-2.8,1.7-5.5,3.4-8.3,5
						c1.6,2,3.6,3.6,5.8,4.9c6.1,3.4,12,4.7,17.9,4.6c2.9,0,5.8-0.4,8.7-1.1c27.2-6.6,50.8-24.2,71.7-42.6"/>
				</g>
			</g>
			<g>
				<g>
					<path fill="#C0E3EE" d="M606,1354.1c-7.1-7.4-11.2-16.9-12.9-27c-0.6-3.4-0.9-6.8-0.9-10.2c0.7-18.4,6.2-35.3,10.9-52.3
						c0.9-3.4,1.9-6.8,2.7-10.3c30.1,9.2,30.5,45.8,16,68.7c-1.6,3.5-3.4,6.8-5.3,9.9c-1.4,3.2-2.8,6.4-4.2,9.5
						c-1.4,3.1-2.8,6.2-4.3,9.2"/>
				</g>
			</g>
			<g>
				<g>
					<path fill="#C0E3EE" d="M694.9,1403.1c-3.3,0.4-6.4,1.1-9.4,1.9c-3,0.8-5.9,1.8-8.8,3c-2.3,1-4.6,2.1-6.9,3.3
						c-3.3,1.8-6.3,3.9-9.2,6.1c-2.9,2.2-5.6,4.6-8.2,7.2c-2.1,2.3-4.1,4.5-6.2,6.8c-2,2.3-4,4.5-6,6.8
						c-12.7,17.7-32,30.2-38.3,52.5c21,4.7,46.5-10.1,56.8-28.4c1.6-2.3,3.1-4.7,4.5-7.1c4.4-7.2,8.5-14.5,13.1-20.9
						c1.7-2.7,3.4-5.4,5.2-7.9c2.9-3.7,5.4-7.3,7.5-10.6c2.1-3.3,3.9-6.4,5.2-9.2"/>
				</g>
			</g>
			<g>
				<g>
					<path fill="#C0E3EE" d="M705.6,1401.6c-5.4-5.7-9.2-12.6-11.5-20.1c-0.8-2.5-1.4-5.1-1.8-7.6c3.4-24,8.9-57.7,28.2-71
						c9.7-6.7,17.3,13.4,16.5,24.9c-2.4,19.6-8.7,36.6-20.6,52.1c-1.4,3.3-2.9,6.6-4.3,9.8c-1.4,3.2-2.9,6.3-4.4,9.4"/>
				</g>
			</g>
			<g>
				<g>
					<path fill="#C0E3EE" d="M741.6,1426.3c-3.1,0.9-6,1.9-8.7,3.2c-2.8,1.2-5.4,2.6-7.9,4.1c-10.4,6.4-19.3,14.8-26.2,25.1
						c-1.4,2.1-2.7,4.2-3.9,6.4c-11.4,17.8-16.6,38.1-28,55.7c7.1,0.6,13.5,0.4,20.8-2.5c2.2-0.9,4.2-2,6.1-3.3
						c2.6-1.7,5-3.7,7.3-5.9c20.8-21.5,32.1-50.8,40.6-79.3"/>
				</g>
			</g>
			<g>
				<g>
					<path fill="#C0E3EE" d="M745.7,1424.5c-8.1-36.7,15.7-75.4,34.1-105.9c34.2,34-10.1,76-30.9,103.2"/>
				</g>
			</g>
			<g>
				<g>
					<path fill="#C0E3EE" d="M516.4,1297.4c-8.8-15.6-35.4-67.7-11.1-77.6c29,28.4,13.8,44.4,14,77.9"/>
				</g>
			</g>
			<g>
				<g>
					<path fill="#C0E3EE" d="M556.2,1324.3c-4.4-26.4-26.5-78.4,9.6-93.5c34.1,28-9.2,62.9-6.6,95.5"/>
				</g>
			</g>
			<g>
				<g>
					<path fill="#C0E3EE" d="M667.3,1382.4c-14.4-3.5-27.9-2.6-40.6,0.9c-2.6,0.7-5.1,1.5-7.6,2.5c-28.4,12.4-46.2,38.1-69.6,57.3
						c2.8,1.9,5.5,3.2,8.2,4c2.7,0.8,5.4,1.1,8.1,1c14.7-1,27.7-12.1,39.7-21.3c2.6-2,5.3-3.9,7.9-5.7c5.2-3.6,10.4-6.6,15.6-8.4
						c3.2-2,6.3-4,9.2-6c11.9-8,21.7-16,27.3-21.4"/>
				</g>
			</g>
			<g>
				<g>
					<path fill="#C0E3EE" d="M657.9,1379.7c-1-2.7-2.2-5.6-3.5-8.7c-12.1-31.2-18.4-77.3,9.2-94c4.1-2.3,7.1-0.3,9.4,3.9
						c1.1,2.1,2,4.8,2.7,7.7c3.2,15.5,3.1,31.7-3.6,46.3c-1.3,3-2.7,5.9-4,8.8c-4,8.7-7.8,17.3-8,27.1c0.1,3.5,0.5,7,1.4,10.4"/>
				</g>
			</g>
			<g>
				<g>
					<path fill="#C0E3EE" d="M796.1,1460.5c-24.5-15.6-50.4-29.2-76.1-42.8c-26.9-14.2-54-28.1-80.9-42.4c-6-3.2-11.7-6.8-17.7-9.9
						c-6.6-3.4-13.2-6.8-19.7-10.4c-12.7-7.1-25.4-14.5-37.8-22c-24.9-15.1-49.2-31.3-72.2-49.2c-23.9-18.6-46.3-39.3-65.9-62.5
						c-5.6-6.7,5.5-6.5,8.9-2.4c37,43.8,83.9,78,132.7,107.7c12.5,7.6,25.1,14.9,37.8,22c6,3.3,12,6.5,18.2,9.6
						c6.6,3.3,12.8,7.3,19.3,10.7c26.9,14.3,54,28.1,80.9,42.4c50.1,26.4,98.8,54.6,142.4,91.1"/>
				</g>
			</g>
			<g>
				<g>
					<path fill="#C0E3EE" d="M477,1264.7c-3.8-11.5-63.4-108.4-79.5-65.4c-11.7,32.6,58.4,59.5,74.1,64.6"/>
				</g>
			</g>
		</g>
		<g>
			<g>
				<g>
					<path fill="#C0E3EE" d="M716,1089.7c-0.2-23.1-10.3-41.3-24.2-57.2c-2-2.3-4-4.5-6.2-6.7c-7.5-10.8-25.3-21.3-33.4-11.6
						c-9.7,11.9,6.2,28.8,17.3,37.6c15.4,16.6,33.3,30.9,43.2,36.9"/>
				</g>
			</g>
			<g>
				<g>
					<path fill="#C0E3EE" d="M725,1133c-11.2-40.6-52.5-54.2-86-72.2c-10.2,30.6,59.9,65.2,82.9,72.1"/>
				</g>
			</g>
			<g>
				<g>
					<path fill="#C0E3EE" d="M733.5,1175.6c-1.2-2.3-2.6-4.5-4-6.5c-1.5-2-3-4-4.7-5.7c-8.4-8.9-18.6-15.4-30.6-19.1
						c-2.3-0.9-4.7-1.7-7.1-2.5c-2.7-0.9-5.5-1.7-8.3-2.5c-8.5-2.1-17.3-4.7-25.4-6.4c-2.8-0.7-5.6-1.4-8.3-2.2
						c-0.3,2.3-0.1,4.5,0.4,6.7c1.6,6,4.4,10.6,8,14.3c1.8,1.8,3.9,3.5,6,4.9c21,13.3,46.7,17.5,71.2,19.5"/>
				</g>
			</g>
			<g>
				<g>
					<path fill="#C0E3EE" d="M733.6,1176.2c0.4-9,3.9-17.6,9.3-24.9c1.8-2.4,3.8-4.7,5.9-6.8c12.1-10.9,26.3-17.7,40.1-25.2
						c2.8-1.5,5.5-3,8.2-4.6c12.7,24.9-10.4,47.6-34,52.5c-3.2,1.1-6.4,2-9.5,2.7c-2.9,1.1-5.8,2.1-8.6,3.2c-2.8,1-5.7,2-8.5,2.9"/>
				</g>
			</g>
			<g>
				<g>
					<path fill="#C0E3EE" d="M757,1263.1c-2.3-1.8-4.6-3.4-7-4.9c-2.4-1.4-4.8-2.7-7.3-3.7c-2.1-0.9-4.2-1.7-6.3-2.4
						c-3.2-1-6.4-1.7-9.6-2.2c-3.2-0.5-6.4-0.7-9.6-0.8c-2.7,0.1-5.4,0.1-8.1,0.2c-2.7,0.1-5.4,0.2-8,0.4c-19.1,2.8-39-1.8-57.1,7.8
						c9.9,16.3,35,23.4,53.1,18.8c2.5-0.4,4.9-0.9,7.3-1.5c7.3-1.6,14.4-3.5,21.4-4.5c2.8-0.6,5.5-1.1,8.2-1.5
						c4.1-0.5,7.9-1,11.4-1.7c3.4-0.7,6.5-1.5,9.1-2.3"/>
				</g>
			</g>
			<g>
				<g>
					<path fill="#C0E3EE" d="M764.5,1269c0.3-7,2.4-13.6,5.8-19.7c1.1-2,2.4-4,3.8-5.8c17.4-12.6,42.2-29.8,62.6-25.7
						c10.2,2.1,2.1,19.3-5.8,25.8c-14,10.6-28.7,17-45.9,18.9c-3,1.1-5.9,2.2-8.9,3.2c-2.9,1-5.8,2-8.7,3"/>
				</g>
			</g>
			<g>
				<g>
					<path fill="#C0E3EE" d="M771,1307.2c-2.4-1.4-4.9-2.6-7.4-3.6c-2.5-1-5-1.9-7.5-2.5c-10.5-2.7-21.3-3.2-32.1-1.3
						c-2.2,0.4-4.3,0.9-6.5,1.4c-18.4,3.6-34.5,12.8-52.8,16.3c4,4.9,8.1,8.9,14.4,11.7c1.9,0.8,3.9,1.5,5.9,1.9
						c2.7,0.6,5.5,0.9,8.2,1c26.5,0.1,52.1-10.8,75.5-22.9"/>
				</g>
			</g>
			<g>
				<g>
					<path fill="#C0E3EE" d="M774.5,1308.6c18.4-27.7,57.7-36.3,88.5-43.4c-0.6,42.8-54.7,40.3-84.9,43.7"/>
				</g>
			</g>
			<g>
				<g>
					<path fill="#C0E3EE" d="M714.7,1084.3c4.5-15.2,21.4-64.2,42.6-54.8c-0.3,36-19.8,36.1-41,56.8"/>
				</g>
			</g>
			<g>
				<g>
					<path fill="#C0E3EE" d="M722,1126.2c14.1-19,33.7-65.1,65.5-51.3c3.1,39-45.8,32.8-64.9,54.5"/>
				</g>
			</g>
			<g>
				<g>
					<path fill="#C0E3EE" d="M753.3,1232.8c-6.6-11.3-15.5-19.4-25.6-25.3c-2-1.2-4.1-2.3-6.3-3.3c-25.4-10.5-52.7-6.1-79.3-9.1
						c0.5,2.9,1.4,5.5,2.5,7.7c1.2,2.2,2.7,4.1,4.4,5.8c9.7,8.8,24.7,10.3,38,12.2c2.9,0.5,5.7,1,8.5,1.5c5.5,1.1,10.6,2.6,14.9,4.8
						c3.2,0.8,6.4,1.5,9.5,2.2c12.4,2.6,23.6,4,30.4,4.2"/>
				</g>
			</g>
			<g>
				<g>
					<path fill="#C0E3EE" d="M749.1,1225.1c1.1-2.3,2.3-4.8,3.4-7.6c12.5-26.9,38-59.3,65.6-51.9c4,1.2,4.6,4.4,3.2,8.4
						c-0.7,2-1.8,4.2-3.3,6.5c-7.9,11.6-18.3,21.5-31.7,26.2c-2.7,1-5.4,1.9-8.1,2.9c-8,2.8-15.8,5.7-22.2,11.6
						c-2.2,2.2-4.2,4.6-5.8,7.3"/>
				</g>
			</g>
			<g>
				<g>
					<path fill="#C0E3EE" d="M782.6,1363c-5.1-25.3-12.3-50.1-19.5-74.8c-7.5-25.9-15.3-51.7-22.7-77.7c-1.7-5.8-2.8-11.7-4.6-17.4
						c-1.9-6.3-3.8-12.6-5.5-19c-3.3-12.5-6.4-25.1-9.2-37.7c-5.7-25.2-10.3-50.6-13-76.3c-2.8-26.7-3.4-53.7-0.7-80.4
						c0.8-7.7,7.5-0.5,7,4.2c-5.2,50.6,1.9,101.5,12.9,150.8c2.8,12.6,5.9,25.2,9.2,37.7c1.5,5.9,3.2,11.7,5,17.5
						c1.9,6.2,3.2,12.6,5,18.9c7.4,25.9,15.2,51.7,22.7,77.7c14,48.2,25.9,96.6,29.5,146.8"/>
				</g>
			</g>
			<g>
				<g>
					<path fill="#C0E3EE" d="M711.3,1039c5-9.5,30.1-107.1-7.1-90.9c-28,12.5-2.1,73.8,4.3,87"/>
				</g>
			</g>
		</g>
		<g>
			<g>
				<path fill="#BDD6E6" d="M865.9,1479.8c0,0-189.9,50.9-263.9-125c-74.1-176-74.1-264-74.1-264s43.3,2.8,159.8,44
					C995.6,1243.6,865.9,1479.8,865.9,1479.8z"/>
			</g>
			<g>
				<path fill="#FFFFFF" d="M867.8,1476.1c-3.4-13.4-10.8-25.8-18.1-37.4c-10.7-17-22.8-33.1-35.3-48.9c-5.6-7.1-11.3-14.1-17-21.1
					c0,0,0-0.1,0-0.1c-2.3-54.3,18.9-105.8,23.4-159.4c-1.3-1.2-2.6-2.3-4-3.5c-3.7,53.2-24.6,104.1-23.8,157.7
					c-8-9.6-16-19.1-24.2-28.6c-0.1-0.2-0.2-0.4-0.4-0.6c-0.2-0.2-0.5-0.5-0.7-0.7c-10.5-12.2-21.1-24.3-31.8-36.3
					c-0.5-22.4,10.7-44.2,20-64c8.4-18,17.8-36.3,22.2-55.9c-1.2-0.8-2.5-1.5-3.8-2.3c-4.4,21.1-15.1,40.9-24.1,60.2
					c-8.3,17.8-17.6,37.2-18.6,57.2c-3.6-4.1-7.2-8.1-10.8-12.2c-5.4-6.2-10.9-12.3-16.3-18.6c17.4-33.3,27.2-72.5,24.8-110.2
					c-1.3-0.6-2.7-1.2-4-1.8c-0.2,0.3-0.3,0.7-0.3,1.2c2.4,36.6-6.8,74.7-23.5,107.3c-52.5-60.3-104.9-122.3-171.6-167.3
					c-1.5-0.2-2.3-0.2-2.3-0.2s0,1.3,0.1,3.9c48.2,32.5,89.6,74.9,128.2,118.1c4.3,4.8,8.6,9.6,12.8,14.4
					c-42.4-8.2-83.7-22.1-124.1-37.2c0.4,1.6,0.9,3.3,1.3,5c40.3,15,81.4,28.6,123.7,36.7c1,0.2,1.8-0.3,2.3-1
					c9.3,10.5,18.6,21.1,27.9,31.7c0.1,0.9,0.8,1.5,1.6,1.8c10.1,11.5,20.1,23.1,30.2,34.6c0,0.1,0,0.3,0,0.4c0.1,1.3,1.1,2,2.1,2
					c5.5,6.3,11,12.6,16.5,18.9c1,1.1,2,2.3,3,3.4c-6-2.9-12.4-5-18.6-6.7c-16.1-4.3-33-5.8-49.7-6.5c-32.7-1.5-65.7,0.7-98.2,5
					c-0.3,0-0.6,0.1-0.9,0.3c0.5,1.3,1,2.6,1.5,3.9c30.6-4,61.5-5.9,92.3-5.1c16.9,0.5,34,1.9,50.5,5.8c12,2.8,24.9,7.1,33.9,15.9
					c17.5,20.2,34.7,40.6,51,61.7c-64,0.5-129,11.2-192.1-2.9c1.1,1.7,2.3,3.4,3.4,5.1c63.2,13,128,2.3,191.9,2.1
					c1.8,2.3,3.6,4.7,5.4,7c9.2,12.2,18,24.8,25.9,37.9c5.8,9.7,11.4,20,14,31c0.3,1.2,1.3,1.6,2.2,1.5
					C866.3,1479.1,866.9,1477.9,867.8,1476.1z"/>
			</g>
		</g>
		<g>
			<g>
				<path fill="#93CACE" d="M889.1,1516.9c0,0-22.9,195.2-213.8,199c-190.9,3.8-272.6-28.8-272.6-28.8s18.7-39.2,99.9-132.2
					C717.6,1309.1,889.1,1516.9,889.1,1516.9z"/>
			</g>
			<g>
				<path fill="#FFFFFF" d="M886.4,1513.8c-13.7-1.8-28,0.5-41.4,2.9c-19.8,3.6-39.2,9-58.5,14.7c-8.7,2.6-17.3,5.2-25.9,8
					c0,0-0.1,0-0.1-0.1c-51.3-17.9-91.3-56.7-139.5-80.7c-1.6,0.8-3.2,1.6-4.7,2.4c48,23.1,87.6,61.4,137.7,80.4
					c-11.9,3.8-23.7,7.8-35.5,11.9c-0.2,0-0.4,0.1-0.7,0.1c-0.3,0.1-0.6,0.3-0.9,0.4c-15.2,5.3-30.4,10.7-45.5,16.1
					c-21-7.9-37.1-26.3-52.1-42.2c-13.6-14.5-27.1-30-43.7-41.3c-1.2,0.9-2.4,1.8-3.5,2.6c18,11.9,32.4,29.1,47,44.6
					c13.5,14.3,28.1,30.1,46.3,38.4c-5.1,1.8-10.2,3.7-15.3,5.5c-7.7,2.8-15.5,5.5-23.3,8.3c-24.5-28.5-57.3-52.1-93.2-63.8
					c-1,1-2.1,2-3.1,3.1c0.2,0.3,0.5,0.6,1,0.7c34.9,11.3,66.9,33.9,91,61.5c-75.5,26.5-152.5,52.3-218.9,97.6c-0.7,1.4-1.1,2-1.1,2
					s1.2,0.5,3.7,1.3c48.1-32.8,102.7-55.5,157.1-75.5c6-2.2,12.1-4.4,18.1-6.6c-23.3,36.4-51.5,69.6-80.4,101.6
					c1.7,0.2,3.4,0.4,5.1,0.6c28.8-31.9,56.7-65,79.8-101.3c0.6-0.9,0.4-1.8-0.1-2.5c13.2-4.8,26.5-9.5,39.7-14.2
					c0.8,0.2,1.7-0.2,2.2-0.8c14.4-5.1,28.9-10.2,43.3-15.2c0.1,0,0.3,0.1,0.4,0.1c1.3,0.4,2.3-0.3,2.7-1.2
					c7.9-2.8,15.8-5.6,23.7-8.3c1.4-0.5,2.8-1,4.3-1.5c-4.9,4.5-9.2,9.6-13.1,14.9c-9.9,13.4-17.6,28.5-24.4,43.7
					c-13.5,29.8-23.6,61.3-31.7,93.1c-0.1,0.3-0.1,0.6-0.1,0.9c1.4,0,2.8,0,4.2,0c7.6-29.9,17.2-59.4,29.4-87.7
					c6.7-15.6,14.4-30.8,24-44.8c7-10.1,15.8-20.5,27.3-25.6c25.2-8.8,50.5-17.2,76.2-24.6c-23.2,59.7-37.3,124-73.8,177.4
					c2-0.4,4-0.9,6-1.3c35.4-53.9,49.5-118.1,72.9-177.6c2.8-0.8,5.7-1.6,8.5-2.4c14.8-4,29.7-7.6,44.8-10c11.1-1.8,22.7-3.2,34-1.6
					c1.2,0.2,2-0.6,2.2-1.5C888.6,1516.3,887.7,1515.3,886.4,1513.8z"/>
			</g>
		</g>
	</g>
	<g>
		<g>
			<g>
				<g>
					<path fill="#C0E3EE" d="M2519.7,1300.6c18.9-18,41.6-24,65.4-25.2c3.4-0.2,6.8-0.2,10.3-0.2c14.7-2.3,37.1,3.8,35.6,18.1
						c-2.1,17.2-28.2,17.6-44.1,15.4c-25.6,0.5-51.2-2.9-63.8-6.2"/>
				</g>
			</g>
			<g>
				<g>
					<path fill="#C0E3EE" d="M2477.5,1327.2c41.7-22.7,85.2,0.3,126.1,13.4c-16.9,32.3-100,2.4-123.6-10.9"/>
				</g>
			</g>
			<g>
				<g>
					<path fill="#C0E3EE" d="M2436.1,1353.6c2.9-0.8,5.7-1.4,8.5-1.9c2.8-0.4,5.6-0.6,8.3-0.7c13.8-0.1,27.1,3.1,39.5,9.9
						c2.5,1.2,5.1,2.5,7.6,3.8c2.9,1.5,5.7,3.2,8.5,4.8c8.4,5.3,17.4,10.3,25.1,15.7c2.8,1.7,5.5,3.4,8.3,5c-1.6,2-3.6,3.6-5.8,4.9
						c-6.1,3.4-12,4.7-17.9,4.6c-2.9,0-5.8-0.4-8.7-1.1c-27.2-6.6-50.8-24.2-71.7-42.6"/>
				</g>
			</g>
			<g>
				<g>
					<path fill="#C0E3EE" d="M2435.6,1354.1c7.1-7.4,11.2-16.9,12.9-27c0.6-3.4,0.9-6.8,0.9-10.2c-0.7-18.4-6.2-35.3-10.9-52.3
						c-0.9-3.4-1.9-6.8-2.7-10.3c-30.1,9.2-30.5,45.8-16,68.7c1.6,3.5,3.4,6.8,5.3,9.9c1.4,3.2,2.8,6.4,4.2,9.5
						c1.4,3.1,2.8,6.2,4.3,9.2"/>
				</g>
			</g>
			<g>
				<g>
					<path fill="#C0E3EE" d="M2346.6,1403.1c3.3,0.4,6.4,1.1,9.4,1.9c3,0.8,5.9,1.8,8.8,3c2.3,1,4.6,2.1,6.9,3.3
						c3.3,1.8,6.3,3.9,9.2,6.1c2.9,2.2,5.6,4.6,8.2,7.2c2.1,2.3,4.1,4.5,6.2,6.8c2,2.3,4,4.5,6,6.8c12.7,17.7,32,30.2,38.3,52.5
						c-21,4.7-46.5-10.1-56.8-28.4c-1.6-2.3-3.1-4.7-4.5-7.1c-4.4-7.2-8.5-14.5-13.1-20.9c-1.7-2.7-3.4-5.4-5.2-7.9
						c-2.9-3.7-5.4-7.3-7.5-10.6c-2.1-3.3-3.9-6.4-5.2-9.2"/>
				</g>
			</g>
			<g>
				<g>
					<path fill="#C0E3EE" d="M2336,1401.6c5.4-5.7,9.2-12.6,11.5-20.1c0.8-2.5,1.4-5.1,1.8-7.6c-3.4-24-8.9-57.7-28.2-71
						c-9.7-6.7-17.3,13.4-16.5,24.9c2.4,19.6,8.7,36.6,20.6,52.1c1.4,3.3,2.9,6.6,4.3,9.8c1.4,3.2,2.9,6.3,4.4,9.4"/>
				</g>
			</g>
			<g>
				<g>
					<path fill="#C0E3EE" d="M2299.9,1426.3c3.1,0.9,6,1.9,8.7,3.2c2.8,1.2,5.4,2.6,7.9,4.1c10.4,6.4,19.3,14.8,26.2,25.1
						c1.4,2.1,2.7,4.2,3.9,6.4c11.4,17.8,16.6,38.1,28,55.7c-7.1,0.6-13.5,0.4-20.8-2.5c-2.2-0.9-4.2-2-6.1-3.3
						c-2.6-1.7-5-3.7-7.3-5.9c-20.8-21.5-32.1-50.8-40.6-79.3"/>
				</g>
			</g>
			<g>
				<g>
					<path fill="#C0E3EE" d="M2295.9,1424.5c8.1-36.7-15.7-75.4-34.1-105.9c-34.2,34,10.1,76,30.9,103.2"/>
				</g>
			</g>
			<g>
				<g>
					<path fill="#C0E3EE" d="M2525.1,1297.4c8.8-15.6,35.4-67.7,11.1-77.6c-29,28.4-13.8,44.4-14,77.9"/>
				</g>
			</g>
			<g>
				<g>
					<path fill="#C0E3EE" d="M2485.3,1324.3c4.4-26.4,26.5-78.4-9.6-93.5c-34.1,28,9.2,62.9,6.6,95.5"/>
				</g>
			</g>
			<g>
				<g>
					<path fill="#C0E3EE" d="M2374.2,1382.4c14.4-3.5,27.9-2.6,40.6,0.9c2.6,0.7,5.1,1.5,7.6,2.5c28.4,12.4,46.2,38.1,69.6,57.3
						c-2.8,1.9-5.5,3.2-8.2,4c-2.7,0.8-5.4,1.1-8.1,1c-14.7-1-27.7-12.1-39.7-21.3c-2.6-2-5.3-3.9-7.9-5.7
						c-5.2-3.6-10.4-6.6-15.6-8.4c-3.2-2-6.3-4-9.2-6c-11.9-8-21.7-16-27.3-21.4"/>
				</g>
			</g>
			<g>
				<g>
					<path fill="#C0E3EE" d="M2383.7,1379.7c1-2.7,2.2-5.6,3.5-8.7c12.1-31.2,18.4-77.3-9.2-94c-4.1-2.3-7.1-0.3-9.4,3.9
						c-1.1,2.1-2,4.8-2.7,7.7c-3.2,15.5-3.1,31.7,3.6,46.3c1.3,3,2.7,5.9,4,8.8c4,8.7,7.8,17.3,8,27.1c-0.1,3.5-0.5,7-1.4,10.4"/>
				</g>
			</g>
			<g>
				<g>
					<path fill="#C0E3EE" d="M2245.4,1460.5c24.5-15.6,50.4-29.2,76.1-42.8c26.9-14.2,54-28.1,80.9-42.4c6-3.2,11.7-6.8,17.7-9.9
						c6.6-3.4,13.2-6.8,19.7-10.4c12.7-7.1,25.4-14.5,37.8-22c24.9-15.1,49.2-31.3,72.2-49.2c23.9-18.6,46.3-39.3,65.9-62.5
						c5.6-6.7-5.5-6.5-8.9-2.4c-37,43.8-83.9,78-132.7,107.7c-12.5,7.6-25.1,14.9-37.8,22c-6,3.3-12,6.5-18.2,9.6
						c-6.6,3.3-12.8,7.3-19.3,10.7c-26.9,14.3-54,28.1-80.9,42.4c-50.1,26.4-98.8,54.6-142.4,91.1"/>
				</g>
			</g>
			<g>
				<g>
					<path fill="#C0E3EE" d="M2564.5,1264.7c3.8-11.5,63.4-108.4,79.5-65.4c11.7,32.6-58.4,59.5-74.1,64.6"/>
				</g>
			</g>
		</g>
		<g>
			<g>
				<g>
					<path fill="#C0E3EE" d="M2325.6,1089.7c0.2-23.1,10.3-41.3,24.2-57.2c2-2.3,4-4.5,6.2-6.7c7.5-10.8,25.3-21.3,33.4-11.6
						c9.7,11.9-6.2,28.8-17.3,37.6c-15.4,16.6-33.3,30.9-43.2,36.9"/>
				</g>
			</g>
			<g>
				<g>
					<path fill="#C0E3EE" d="M2316.6,1133c11.2-40.6,52.5-54.2,86-72.2c10.2,30.6-59.9,65.2-82.9,72.1"/>
				</g>
			</g>
			<g>
				<g>
					<path fill="#C0E3EE" d="M2308,1175.6c1.2-2.3,2.6-4.5,4-6.5c1.5-2,3-4,4.7-5.7c8.4-8.9,18.6-15.4,30.6-19.1
						c2.3-0.9,4.7-1.7,7.1-2.5c2.7-0.9,5.5-1.7,8.3-2.5c8.5-2.1,17.3-4.7,25.4-6.4c2.8-0.7,5.6-1.4,8.3-2.2c0.3,2.3,0.1,4.5-0.4,6.7
						c-1.6,6-4.4,10.6-8,14.3c-1.8,1.8-3.9,3.5-6,4.9c-21,13.3-46.7,17.5-71.2,19.5"/>
				</g>
			</g>
			<g>
				<g>
					<path fill="#C0E3EE" d="M2307.9,1176.2c-0.4-9-3.9-17.6-9.3-24.9c-1.8-2.4-3.8-4.7-5.9-6.8c-12.1-10.9-26.3-17.7-40.1-25.2
						c-2.8-1.5-5.5-3-8.2-4.6c-12.7,24.9,10.4,47.6,34,52.5c3.2,1.1,6.4,2,9.5,2.7c2.9,1.1,5.8,2.1,8.6,3.2c2.8,1,5.7,2,8.5,2.9"/>
				</g>
			</g>
			<g>
				<g>
					<path fill="#C0E3EE" d="M2284.5,1263.1c2.3-1.8,4.6-3.4,7-4.9c2.4-1.4,4.8-2.7,7.3-3.7c2.1-0.9,4.2-1.7,6.3-2.4
						c3.2-1,6.4-1.7,9.6-2.2c3.2-0.5,6.4-0.7,9.6-0.8c2.7,0.1,5.4,0.1,8.1,0.2c2.7,0.1,5.4,0.2,8,0.4c19.1,2.8,39-1.8,57.1,7.8
						c-9.9,16.3-35,23.4-53.1,18.8c-2.5-0.4-4.9-0.9-7.3-1.5c-7.3-1.6-14.4-3.5-21.4-4.5c-2.8-0.6-5.5-1.1-8.2-1.5
						c-4.1-0.5-7.9-1-11.4-1.7c-3.4-0.7-6.5-1.5-9.1-2.3"/>
				</g>
			</g>
			<g>
				<g>
					<path fill="#C0E3EE" d="M2277,1269c-0.3-7-2.4-13.6-5.8-19.7c-1.1-2-2.4-4-3.8-5.8c-17.4-12.6-42.2-29.8-62.6-25.7
						c-10.2,2.1-2.1,19.3,5.8,25.8c14,10.6,28.7,17,45.9,18.9c3,1.1,5.9,2.2,8.9,3.2c2.9,1,5.8,2,8.7,3"/>
				</g>
			</g>
			<g>
				<g>
					<path fill="#C0E3EE" d="M2270.6,1307.2c2.4-1.4,4.9-2.6,7.4-3.6c2.5-1,5-1.9,7.5-2.5c10.5-2.7,21.3-3.2,32.1-1.3
						c2.2,0.4,4.3,0.9,6.5,1.4c18.4,3.6,34.5,12.8,52.8,16.3c-4,4.9-8.1,8.9-14.4,11.7c-1.9,0.8-3.9,1.5-5.9,1.9
						c-2.7,0.6-5.5,0.9-8.2,1c-26.5,0.1-52.1-10.8-75.5-22.9"/>
				</g>
			</g>
			<g>
				<g>
					<path fill="#C0E3EE" d="M2267,1308.6c-18.4-27.7-57.7-36.3-88.5-43.4c0.6,42.8,54.7,40.3,84.9,43.7"/>
				</g>
			</g>
			<g>
				<g>
					<path fill="#C0E3EE" d="M2326.9,1084.3c-4.5-15.2-21.4-64.2-42.6-54.8c0.3,36,19.8,36.1,41,56.8"/>
				</g>
			</g>
			<g>
				<g>
					<path fill="#C0E3EE" d="M2319.6,1126.2c-14.1-19-33.7-65.1-65.5-51.3c-3.1,39,45.8,32.8,64.9,54.5"/>
				</g>
			</g>
			<g>
				<g>
					<path fill="#C0E3EE" d="M2288.3,1232.8c6.6-11.3,15.5-19.4,25.6-25.3c2-1.2,4.1-2.3,6.3-3.3c25.4-10.5,52.7-6.1,79.3-9.1
						c-0.5,2.9-1.4,5.5-2.5,7.7c-1.2,2.2-2.7,4.1-4.4,5.8c-9.7,8.8-24.7,10.3-38,12.2c-2.9,0.5-5.7,1-8.5,1.5
						c-5.5,1.1-10.6,2.6-14.9,4.8c-3.2,0.8-6.4,1.5-9.5,2.2c-12.4,2.6-23.5,4-30.4,4.2"/>
				</g>
			</g>
			<g>
				<g>
					<path fill="#C0E3EE" d="M2292.4,1225.1c-1.1-2.3-2.3-4.8-3.4-7.6c-12.5-26.9-38-59.3-65.6-51.9c-4,1.2-4.6,4.4-3.2,8.4
						c0.7,2,1.8,4.2,3.3,6.5c7.9,11.6,18.3,21.5,31.7,26.2c2.7,1,5.4,1.9,8.1,2.9c8,2.8,15.8,5.7,22.2,11.6c2.2,2.2,4.2,4.6,5.8,7.3
						"/>
				</g>
			</g>
			<g>
				<g>
					<path fill="#C0E3EE" d="M2258.9,1363c5.1-25.3,12.3-50.1,19.5-74.8c7.5-25.9,15.3-51.7,22.7-77.7c1.7-5.8,2.8-11.7,4.6-17.4
						c1.9-6.3,3.8-12.6,5.5-19c3.3-12.5,6.4-25.1,9.2-37.7c5.7-25.2,10.3-50.6,13-76.3c2.8-26.7,3.4-53.7,0.7-80.4
						c-0.8-7.7-7.5-0.5-7,4.2c5.2,50.6-1.9,101.5-12.9,150.8c-2.8,12.6-5.9,25.2-9.2,37.7c-1.5,5.9-3.2,11.7-5,17.5
						c-1.9,6.2-3.2,12.6-5,18.9c-7.4,25.9-15.2,51.7-22.7,77.7c-14,48.2-25.9,96.6-29.5,146.8"/>
				</g>
			</g>
			<g>
				<g>
					<path fill="#C0E3EE" d="M2330.2,1039c-5-9.5-30.1-107.1,7.1-90.9c28,12.5,2.1,73.8-4.3,87"/>
				</g>
			</g>
		</g>
		<g>
			<g>
				<path fill="#BDD6E6" d="M2175.6,1479.8c0,0,189.9,50.9,263.9-125c74.1-176,74.1-264,74.1-264s-43.3,2.8-159.8,44
					C2046,1243.6,2175.6,1479.8,2175.6,1479.8z"/>
			</g>
			<g>
				<path fill="#FFFFFF" d="M2173.8,1476.1c3.4-13.4,10.8-25.8,18.1-37.4c10.7-17,22.8-33.1,35.3-48.9c5.6-7.1,11.3-14.1,17-21.1
					c0,0,0-0.1,0-0.1c2.3-54.3-18.9-105.8-23.4-159.4c1.3-1.2,2.6-2.3,4-3.5c3.7,53.2,24.6,104.1,23.8,157.7
					c8-9.6,16-19.1,24.2-28.6c0.1-0.2,0.2-0.4,0.4-0.6c0.2-0.2,0.5-0.5,0.7-0.7c10.5-12.2,21.1-24.3,31.8-36.3
					c0.5-22.4-10.7-44.2-20-64c-8.4-18-17.8-36.3-22.2-55.9c1.2-0.8,2.5-1.5,3.8-2.3c4.4,21.1,15.1,40.9,24.1,60.2
					c8.3,17.8,17.6,37.2,18.6,57.2c3.6-4.1,7.2-8.1,10.8-12.2c5.4-6.2,10.9-12.3,16.3-18.6c-17.4-33.3-27.2-72.5-24.8-110.2
					c1.3-0.6,2.7-1.2,4-1.8c0.2,0.3,0.3,0.7,0.3,1.2c-2.4,36.6,6.8,74.7,23.5,107.3c52.5-60.3,104.9-122.3,171.6-167.3
					c1.5-0.2,2.3-0.2,2.3-0.2s0,1.3-0.1,3.9c-48.2,32.5-89.6,74.9-128.2,118.1c-4.3,4.8-8.6,9.6-12.8,14.4
					c42.4-8.2,83.7-22.1,124.1-37.2c-0.4,1.6-0.9,3.3-1.3,5c-40.3,15-81.4,28.6-123.7,36.7c-1,0.2-1.8-0.3-2.3-1
					c-9.3,10.5-18.6,21.1-27.9,31.7c-0.1,0.9-0.8,1.5-1.6,1.8c-10.1,11.5-20.1,23.1-30.2,34.6c0,0.1,0,0.3,0,0.4
					c-0.1,1.3-1.1,2-2.1,2c-5.5,6.3-11,12.6-16.5,18.9c-1,1.1-2,2.3-3,3.4c6-2.9,12.4-5,18.6-6.7c16.1-4.3,33-5.8,49.7-6.5
					c32.7-1.5,65.7,0.7,98.2,5c0.3,0,0.6,0.1,0.9,0.3c-0.5,1.3-1,2.6-1.5,3.9c-30.6-4-61.5-5.9-92.3-5.1c-16.9,0.5-34,1.9-50.5,5.8
					c-12,2.8-24.9,7.1-33.9,15.9c-17.5,20.2-34.7,40.6-51,61.7c64,0.5,129,11.2,192.1-2.9c-1.1,1.7-2.3,3.4-3.4,5.1
					c-63.2,13-128,2.3-191.9,2.1c-1.8,2.3-3.6,4.7-5.4,7c-9.2,12.2-18,24.8-25.9,37.9c-5.8,9.7-11.4,20-14,31
					c-0.3,1.2-1.3,1.6-2.2,1.5C2175.2,1479.1,2174.6,1477.9,2173.8,1476.1z"/>
			</g>
		</g>
		<g>
			<g>
				<path fill="#93CACE" d="M2152.4,1516.9c0,0,22.9,195.2,213.8,199c190.9,3.8,272.6-28.8,272.6-28.8s-18.7-39.2-99.9-132.2
					C2323.9,1309.1,2152.4,1516.9,2152.4,1516.9z"/>
			</g>
			<g>
				<path fill="#FFFFFF" d="M2155.1,1513.8c13.7-1.8,28,0.5,41.4,2.9c19.8,3.6,39.2,9,58.5,14.7c8.7,2.6,17.3,5.2,25.9,8
					c0,0,0.1,0,0.1-0.1c51.3-17.9,91.3-56.7,139.5-80.7c1.6,0.8,3.2,1.6,4.7,2.4c-48,23.1-87.6,61.4-137.7,80.4
					c11.9,3.8,23.7,7.8,35.5,11.9c0.2,0,0.4,0.1,0.7,0.1c0.3,0.1,0.6,0.3,0.9,0.4c15.2,5.3,30.4,10.7,45.5,16.1
					c21-7.9,37.1-26.3,52.1-42.2c13.6-14.5,27.1-30,43.7-41.3c1.2,0.9,2.4,1.8,3.5,2.6c-18,11.9-32.4,29.1-47,44.6
					c-13.5,14.3-28.1,30.1-46.3,38.4c5.1,1.8,10.2,3.7,15.3,5.5c7.7,2.8,15.5,5.5,23.3,8.3c24.5-28.5,57.3-52.1,93.2-63.8
					c1,1,2.1,2,3.1,3.1c-0.2,0.3-0.5,0.6-1,0.7c-34.9,11.3-66.9,33.9-91,61.5c75.5,26.5,152.5,52.3,218.9,97.6c0.7,1.4,1.1,2,1.1,2
					s-1.2,0.5-3.7,1.3c-48.1-32.8-102.7-55.5-157.1-75.5c-6-2.2-12.1-4.4-18.1-6.6c23.3,36.4,51.5,69.6,80.4,101.6
					c-1.7,0.2-3.4,0.4-5.1,0.6c-28.8-31.9-56.7-65-79.8-101.3c-0.6-0.9-0.4-1.8,0.1-2.5c-13.2-4.8-26.5-9.5-39.7-14.2
					c-0.8,0.2-1.7-0.2-2.2-0.8c-14.4-5.1-28.9-10.2-43.3-15.2c-0.1,0-0.3,0.1-0.4,0.1c-1.3,0.4-2.3-0.3-2.7-1.2
					c-7.9-2.8-15.8-5.6-23.7-8.3c-1.4-0.5-2.8-1-4.3-1.5c4.9,4.5,9.2,9.6,13.1,14.9c9.9,13.4,17.6,28.5,24.4,43.7
					c13.5,29.8,23.6,61.3,31.7,93.1c0.1,0.3,0.1,0.6,0.1,0.9c-1.4,0-2.8,0-4.2,0c-7.6-29.9-17.2-59.4-29.4-87.7
					c-6.7-15.6-14.4-30.8-24-44.8c-7-10.1-15.8-20.5-27.3-25.6c-25.2-8.8-50.5-17.2-76.2-24.6c23.2,59.7,37.3,124,73.8,177.4
					c-2-0.4-4-0.9-6-1.3c-35.4-53.9-49.5-118.1-72.9-177.6c-2.8-0.8-5.7-1.6-8.5-2.4c-14.8-4-29.7-7.6-44.8-10
					c-11.1-1.8-22.7-3.2-34-1.6c-1.2,0.2-2-0.6-2.2-1.5C2153,1516.3,2153.8,1515.3,2155.1,1513.8z"/>
			</g>
		</g>
	</g>
	<g>
		<polygon fill="#50CC93" points="2570.5,822.2 2553.2,671.3 2404.6,702.2 2413.9,746.9 2480.3,733.1 2318.6,965.9 2202.1,914.4 
			2013.6,1162.2 2049.9,1189.8 2216.6,970.7 2334.6,1022.9 2517.4,759.7 2525.2,827.4 		"/>
	</g>
	<g opacity="0.7">
		<path fill="#D1D3D4" d="M2292,1715.7c0,35.8-354.6,64.8-792,64.8c-437.4,0-792-29-792-64.8c0-35.8,354.6-64.8,792-64.8
			C1937.4,1650.9,2292,1679.9,2292,1715.7z"/>
	</g>
	<g opacity="0.6">
		<rect x="829.5" y="337.3" fill="#F1F2F2" width="1400" height="1340.9"/>
	</g>
	<g>
		<rect x="800" y="307.7" fill="#FFFFFF" width="1400" height="1400"/>
	</g>
	<g>
		<g>
			<rect x="988.8" y="1063.5" fill="#417FB7" width="465.2" height="19.8"/>
		</g>
		<g>
			<rect x="988.8" y="1099.7" fill="#26AA71" width="374.6" height="17.5"/>
		</g>
		<g>
			<rect x="988.8" y="1132.2" fill="#D1D3D4" width="221.4" height="15.6"/>
		</g>
		<g>
			<rect x="988.8" y="1163.6" fill="#D1D3D4" width="411.7" height="15.6"/>
		</g>
		<g>
			<rect x="1223.7" y="1132.2" fill="#D1D3D4" width="221.4" height="15.6"/>
		</g>
	</g>
	<g>
		<rect x="798.2" y="307.7" fill="#C1C4C6" width="1400" height="70"/>
	</g>
	<g>
		<polygon fill="#E6E7E8" points="1034.3,377.7 798.2,377.7 798.2,307.7 1082.3,307.7 		"/>
	</g>
	<g>
		<path fill="#949EAF" d="M2201,1708.7H799v-1402h1402V1708.7z M801,1706.7h1398v-1398H801V1706.7z"/>
	</g>
	<g>
		
			<ellipse transform="matrix(0.1762 -0.9844 0.9844 0.1762 425.9557 1192.595)" fill="#C1C4C6" cx="925.5" cy="341.8" rx="11.4" ry="11.4"/>
	</g>
	<g>
		
			<ellipse transform="matrix(0.174 -0.9848 0.9848 0.174 469.1747 1242.9551)" fill="#C1C4C6" cx="975.5" cy="341.8" rx="11.4" ry="11.4"/>
	</g>
	<g>
		
			<ellipse transform="matrix(0.2286 -0.9735 0.9735 0.2286 340.3659 1113.2032)" fill="#C1C4C6" cx="872.7" cy="341.8" rx="11.4" ry="11.4"/>
	</g>
	<g>
		<circle fill="#417FB7" cx="872.7" cy="453.2" r="11.4"/>
	</g>
	<g>
		<circle fill="#F46E6E" cx="914.1" cy="453.2" r="11.4"/>
	</g>
	<g>
		<circle fill="#FCB43F" cx="954.3" cy="453.2" r="11.4"/>
	</g>
	<g>
		<circle fill="#417FB7" cx="993.7" cy="453.2" r="11.4"/>
	</g>
	<g>
		<circle fill="#26AA71" cx="1030" cy="453.2" r="11.4"/>
	</g>
	<g>
		<circle fill="#F46E6E" cx="1066.4" cy="453.2" r="11.4"/>
	</g>
	<g>
		<path fill="#A7A9AC" d="M1693,478.2h-553.3c-6.9,0-12.5-5.6-12.5-12.5V442c0-6.9,5.6-12.5,12.5-12.5H1693
			c6.9,0,12.5,5.6,12.5,12.5v23.7C1705.5,472.6,1699.9,478.2,1693,478.2z M1139.7,430.5c-6.3,0-11.5,5.2-11.5,11.5v23.7
			c0,6.3,5.2,11.5,11.5,11.5H1693c6.3,0,11.5-5.2,11.5-11.5V442c0-6.3-5.2-11.5-11.5-11.5H1139.7z"/>
	</g>
	<g>
		<g>
			<g>
				
					<rect x="1675.2" y="455.7" transform="matrix(0.7071 -0.7071 0.7071 0.7071 167.7636 1319.1879)" fill="#C1C4C6" width="2.1" height="2.9"/>
			</g>
			<g>
				<polygon fill="#C1C4C6" points="1686.3,465.8 1684.1,468 1675.7,458.8 1677.9,456.6 				"/>
			</g>
		</g>
		<g>
			<g>
				<path fill="#C1C4C6" d="M1680,450.9c0,5.1-4.2,9.3-9.4,9.3c-2.7,0-5.5-1.3-7.2-3.5c-1.3-1.6-2-3.6-2-5.9c0-5,4.3-9.2,9.4-9.2
					C1675.8,441.6,1680,445.8,1680,450.9z M1664,450.9c0,2.1,0.7,3.8,2.2,5.1c1.2,1.1,2.8,1.7,4.4,1.7c3.8,0,6.7-3,6.7-6.7
					c0-3.8-2.9-6.8-6.6-6.8C1667,444.1,1664,447.1,1664,450.9z"/>
			</g>
		</g>
	</g>
	<g>
		<g>
			<rect x="936.8" y="804.2" fill="#417FB7" width="643.2" height="19.8"/>
		</g>
		<g>
			<rect x="936.8" y="840.4" fill="#26AA71" width="517.9" height="17.5"/>
		</g>
		<g>
			<rect x="936.8" y="872.9" fill="#D1D3D4" width="306.1" height="15.6"/>
		</g>
		<g>
			<rect x="936.8" y="904.2" fill="#D1D3D4" width="569.2" height="15.6"/>
		</g>
		<g>
			<rect x="1261.5" y="872.9" fill="#D1D3D4" width="306.1" height="15.6"/>
		</g>
	</g>
	<g>
		<polygon fill="#FFEB97" points="2504.1,476.7 2486.7,273.5 2286.1,309.3 2296.8,369.6 2384.9,353.9 2015.1,848.2 1806.3,726.8 
			1035.1,1658.7 1082.5,1697.6 1820.5,806 2031,928.3 2435.1,389.1 2443,481.9 		"/>
	</g>
	<g>
		<rect x="1352.3" y="1235" fill="#417FB7" width="295.5" height="511.4"/>
	</g>
	<g>
		<rect x="902.3" y="1446.4" fill="#417FB7" width="295.5" height="300"/>
	</g>
	<g>
		<rect x="1802.3" y="1062.3" fill="#417FB7" width="295.5" height="684.1"/>
	</g>
	<g>
		<path fill="#2A5677" d="M2003.4,1163.6c0,28.9-23.4,52.3-52.3,52.3c-28.9,0-52.3-23.4-52.3-52.3c0-28.9,23.4-52.3,52.3-52.3
			C1980,1111.3,2003.4,1134.7,2003.4,1163.6z"/>
	</g>
	<g>
		<g>
			<path fill="#FFFFFF" d="M1958.8,1193.1h-10.6v-46.8l-11.9,10.3v-11.5l11.9-10.3h10.6V1193.1z"/>
		</g>
	</g>
	<g>
		
			<ellipse transform="matrix(0.9996 -2.663162e-02 2.663162e-02 0.9996 -40.6291 28.4608)" fill="#2A5677" cx="1048.2" cy="1539.6" rx="52.3" ry="52.3"/>
	</g>
	<g>
		<g>
			<path fill="#FFFFFF" d="M1066.5,1549.3c0,3.8-0.8,6.9-2.5,9.5c-1.7,2.6-3.9,4.6-6.7,5.8c-2.8,1.3-5.9,1.9-9.3,1.9
				c-3.3,0-6.3-0.6-9.1-1.8c-2.8-1.2-5.1-3.1-6.8-5.7c-1.7-2.6-2.6-5.8-2.6-9.7h10.6c0.1,2.5,0.9,4.3,2.4,5.7c1.5,1.3,3.4,2,5.6,2
				c2.3,0,4.2-0.7,5.7-2.1c1.5-1.4,2.2-3.4,2.2-6c0-2.5-0.7-4.4-2.2-5.9s-3.4-2.2-6-2.2h-1.6v-9.2h1.6c2.5,0,4.3-0.7,5.5-2
				s1.8-3.1,1.8-5.2c0-2.4-0.7-4.2-2-5.5c-1.4-1.3-3-2-5.1-2c-2,0-3.7,0.6-5,1.9s-2,3-2.2,5.1h-10.7c0.2-5.1,1.9-9.1,5.3-12.1
				c3.4-3,7.5-4.5,12.6-4.5c3.4,0,6.4,0.7,9.1,2.1s4.8,3.4,6.3,5.9c1.5,2.6,2.3,5.4,2.3,8.6c0,5.6-2.2,9.6-6.7,11.9
				C1064,1538.7,1066.5,1543.1,1066.5,1549.3z"/>
		</g>
	</g>
	<g>
		<path fill="#2A5677" d="M1555,1332.6c0,28.9-23.4,52.3-52.3,52.3c-28.9,0-52.3-23.4-52.3-52.3c0-28.9,23.4-52.3,52.3-52.3
			C1531.6,1280.3,1555,1303.7,1555,1332.6z"/>
	</g>
	<g>
		<g>
			<path fill="#FFFFFF" d="M1520.8,1359.1h-35.4v-9.6l21.7-25.2c1.1-1.2,1.8-2.4,2.3-3.5s0.7-2.3,0.7-3.6c0-1.4-0.3-2.7-0.8-3.8
				s-1.3-2-2.4-2.6s-2.3-0.9-3.8-0.9c-2,0-3.7,0.6-5,1.8c-1.4,1.2-2.1,3.1-2.1,5.7h-10.6c0-3.5,0.8-6.5,2.3-9.1
				c1.5-2.6,3.7-4.6,6.4-5.9c2.7-1.4,5.7-2,9-2c2.6,0,5,0.4,7.1,1.2c2.2,0.8,4,1.9,5.6,3.3c1.6,1.5,2.8,3.2,3.7,5.3
				c0.9,2.1,1.3,4.5,1.3,7.1c0,2.6-0.5,4.8-1.4,6.6s-2.5,4.1-4.8,6.7l-16.3,18.9h22.5V1359.1z"/>
		</g>
	</g>
</g>
<g id="Layer_2">
	<g>
		<g>
			<g>
				<path fill="#FFFFFF" d="M1022.3,973.7c-105.7,0-187.8,84.4-187.8,191.6c0,106.5,83.6,190.9,190.1,190.9c43.3,0,89-18.3,124-48.7
					c41.8-37.3,62.4-84.4,62.4-143.7C1210.9,1058.2,1127.3,973.7,1022.3,973.7z"/>
			</g>
			<g>
				<g>
					<g>
						<path fill="#417FB7" d="M906.6,1079.1h284.8c-5.8-11.8-12.7-22.9-20.7-33.1H906.6V1079.1z"/>
					</g>
				</g>
				<g>
					<g>
						<path fill="#26AA71" d="M906.6,1136h302.3c-1.4-10-3.6-19.8-6.5-29.3H906.6V1136z"/>
					</g>
				</g>
				<g>
					<path fill="#D1D3D4" d="M906.6,1187.3h303.1c0.8-7.6,1.1-15.4,1.1-23.4c0-0.9,0-1.8,0-2.7H906.6V1187.3z"/>
				</g>
				<g>
					<path fill="#D1D3D4" d="M906.6,1213.6v26.1h290.6c3.4-8.4,6.1-17.1,8.2-26.1H906.6z"/>
				</g>
			</g>
		</g>
		<g>
			<g>
				
					<rect x="812.8" y="1312.3" transform="matrix(0.7154 -0.6987 0.6987 0.7154 -693.9426 976.4835)" fill="#F68450" width="77.8" height="55.6"/>
			</g>
			<g>
				
					<rect x="426" y="1480.2" transform="matrix(0.7154 -0.6987 0.6987 0.7154 -874.6139 897.9434)" fill="#545D77" width="477.9" height="84.7"/>
			</g>
		</g>
		<g>
			<g>
				<path fill="#F68450" d="M957.6,940.7c123.8-37.6,257.6,32.3,294.5,154.2c16.9,55.8,15.3,108.6-5.4,157.4
					c-26.6,64-84.2,116.9-149.7,136.7c-126.4,38.3-258.7-31.3-296.2-155.1C763.5,1110.7,834.4,978.1,957.6,940.7z M970.8,982.2
					c-101.1,30.7-155.2,135.3-124.1,237.9c30.9,101.9,135.5,158.4,237.3,127.5c41.5-12.6,79.8-43.3,104.5-82.6
					c29.2-47.8,35.2-98.9,17.9-155.6C1175.8,1008.2,1071.2,951.7,970.8,982.2z"/>
			</g>
		</g>
		<g opacity="0.1">
			<path fill="#C0E3EE" d="M1022.3,973.7c-105.7,0-187.8,84.4-187.8,191.6c0,106.5,83.6,190.9,190.1,190.9c43.3,0,89-18.3,124-48.7
				c41.8-37.3,62.4-84.4,62.4-143.7C1210.9,1058.2,1127.3,973.7,1022.3,973.7z"/>
		</g>
		<g opacity="0.3">
			<path fill="#C0E3EE" d="M1194.2,1085.8c16.1,89.3-37,178.5-125.9,205.5c-95.9,29.1-197.2-25.1-226.3-121
				c-2.9-9.5-4.9-19-6.2-28.5c-2.7,25.5-0.3,52.1,7.7,78.7c30.9,101.9,135.5,158.4,237.3,127.5c41.5-12.6,79.8-43.3,104.5-82.6
				c29.2-47.8,35.2-98.9,17.9-155.6C1200.7,1101.4,1197.6,1093.4,1194.2,1085.8z"/>
		</g>
	</g>
	<g>
		<polygon fill="#F46E6E" points="2412.3,1399.1 2394.9,1248.2 2246.3,1279.1 2255.6,1323.8 2322.1,1310 2160.3,1542.8 
			2043.8,1491.3 1855.3,1739.1 1891.6,1766.7 2058.3,1547.6 2176.3,1599.8 2359.1,1336.6 2366.9,1404.3 		"/>
	</g>
	<g>
		<g>
			<path fill="#FFFFFF" d="M1830,726.2c0,6.6-5.4,12-12,12h-776c-6.6,0-12-5.4-12-12v-178c0-6.6,5.4-12,12-12h776
				c6.6,0,12,5.4,12,12V726.2z"/>
			<path fill="#58595B" d="M1814.2,738.7H1800v-1h14.2V738.7z M1791.5,738.7h-14.2v-1h14.2V738.7z M1768.8,738.7h-14.2v-1h14.2
				V738.7z M1746.2,738.7H1732v-1h14.2V738.7z M1723.5,738.7h-14.2v-1h14.2V738.7z M1700.8,738.7h-14.2v-1h14.2V738.7z
				 M1678.1,738.7H1664v-1h14.2V738.7z M1655.5,738.7h-14.2v-1h14.2V738.7z M1632.8,738.7h-14.2v-1h14.2V738.7z M1610.1,738.7h-14.2
				v-1h14.2V738.7z M1587.4,738.7h-14.2v-1h14.2V738.7z M1564.7,738.7h-14.2v-1h14.2V738.7z M1542.1,738.7h-14.2v-1h14.2V738.7z
				 M1519.4,738.7h-14.2v-1h14.2V738.7z M1496.7,738.7h-14.2v-1h14.2V738.7z M1474,738.7h-14.2v-1h14.2V738.7z M1451.4,738.7h-14.2
				v-1h14.2V738.7z M1428.7,738.7h-14.2v-1h14.2V738.7z M1406,738.7h-14.2v-1h14.2V738.7z M1383.3,738.7h-14.2v-1h14.2V738.7z
				 M1360.7,738.7h-14.2v-1h14.2V738.7z M1338,738.7h-14.2v-1h14.2V738.7z M1315.3,738.7h-14.2v-1h14.2V738.7z M1292.6,738.7h-14.2
				v-1h14.2V738.7z M1269.9,738.7h-14.2v-1h14.2V738.7z M1247.3,738.7h-14.2v-1h14.2V738.7z M1224.6,738.7h-14.2v-1h14.2V738.7z
				 M1201.9,738.7h-14.2v-1h14.2V738.7z M1179.2,738.7h-14.2v-1h14.2V738.7z M1156.6,738.7h-14.2v-1h14.2V738.7z M1133.9,738.7
				h-14.2v-1h14.2V738.7z M1111.2,738.7H1097v-1h14.2V738.7z M1088.5,738.7h-14.2v-1h14.2V738.7z M1065.8,738.7h-14.2v-1h14.2V738.7
				z M1043.2,738.7h-1.2c-4.6,0-8.9-2.5-11.1-6.7l0.9-0.5c2,3.8,5.9,6.1,10.2,6.1h1.2V738.7z M1822.8,737.8l-0.4-0.9
				c4.3-1.8,7.1-6,7.1-10.6v-10.5h1v10.5C1830.5,731.3,1827.5,735.9,1822.8,737.8z M1030.5,723.6h-1v-14.2h1V723.6z M1830.5,707.2
				h-1V693h1V707.2z M1030.5,700.9h-1v-14.2h1V700.9z M1830.5,684.5h-1v-14.2h1V684.5z M1030.5,678.2h-1V664h1V678.2z M1830.5,661.8
				h-1v-14.2h1V661.8z M1030.5,655.5h-1v-14.2h1V655.5z M1830.5,639.2h-1V625h1V639.2z M1030.5,632.9h-1v-14.2h1V632.9z
				 M1830.5,616.5h-1v-14.2h1V616.5z M1030.5,610.2h-1V596h1V610.2z M1830.5,593.8h-1v-14.2h1V593.8z M1030.5,587.5h-1v-14.2h1
				V587.5z M1830.5,571.1h-1V557h1V571.1z M1030.5,564.8h-1v-14.2h1V564.8z M1830.5,548.5h-1v-0.2c0-4.6-2.7-8.7-6.9-10.5l0.4-0.9
				c4.6,2,7.5,6.5,7.5,11.5V548.5z M1032,542.6l-0.9-0.5c2.2-4,6.4-6.4,10.9-6.4h1.4v1h-1.4C1037.8,536.7,1034,539,1032,542.6z
				 M1814.4,536.7h-14.2v-1h14.2V536.7z M1791.8,536.7h-14.2v-1h14.2V536.7z M1769.1,536.7h-14.2v-1h14.2V536.7z M1746.4,536.7
				h-14.2v-1h14.2V536.7z M1723.7,536.7h-14.2v-1h14.2V536.7z M1701,536.7h-14.2v-1h14.2V536.7z M1678.4,536.7h-14.2v-1h14.2V536.7z
				 M1655.7,536.7h-14.2v-1h14.2V536.7z M1633,536.7h-14.2v-1h14.2V536.7z M1610.3,536.7h-14.2v-1h14.2V536.7z M1587.7,536.7h-14.2
				v-1h14.2V536.7z M1565,536.7h-14.2v-1h14.2V536.7z M1542.3,536.7h-14.2v-1h14.2V536.7z M1519.6,536.7h-14.2v-1h14.2V536.7z
				 M1497,536.7h-14.2v-1h14.2V536.7z M1474.3,536.7h-14.2v-1h14.2V536.7z M1451.6,536.7h-14.2v-1h14.2V536.7z M1428.9,536.7h-14.2
				v-1h14.2V536.7z M1406.2,536.7h-14.2v-1h14.2V536.7z M1383.6,536.7h-14.2v-1h14.2V536.7z M1360.9,536.7h-14.2v-1h14.2V536.7z
				 M1338.2,536.7H1324v-1h14.2V536.7z M1315.5,536.7h-14.2v-1h14.2V536.7z M1292.9,536.7h-14.2v-1h14.2V536.7z M1270.2,536.7H1256
				v-1h14.2V536.7z M1247.5,536.7h-14.2v-1h14.2V536.7z M1224.8,536.7h-14.2v-1h14.2V536.7z M1202.1,536.7H1188v-1h14.2V536.7z
				 M1179.5,536.7h-14.2v-1h14.2V536.7z M1156.8,536.7h-14.2v-1h14.2V536.7z M1134.1,536.7h-14.2v-1h14.2V536.7z M1111.4,536.7
				h-14.2v-1h14.2V536.7z M1088.8,536.7h-14.2v-1h14.2V536.7z M1066.1,536.7h-14.2v-1h14.2V536.7z"/>
		</g>
		<g>
			<g>
				<rect x="1091.8" y="584.3" fill="#417FB7" width="553.3" height="19.8"/>
			</g>
			<g>
				<rect x="1091.8" y="620.5" fill="#26AA71" width="342.9" height="17.5"/>
			</g>
			<g>
				<rect x="1091.8" y="653" fill="#D1D3D4" width="306.1" height="15.6"/>
			</g>
			<g>
				<rect x="1091.8" y="684.3" fill="#D1D3D4" width="569.2" height="15.6"/>
			</g>
			<g>
				<rect x="1416.6" y="653" fill="#D1D3D4" width="306.1" height="15.6"/>
			</g>
		</g>
	</g>
	<g>
		<g>
			<path fill="#72482A" d="M1939.9,1037.6c-3.6,6.8-15.6,11.5-22.9,15.4c-3.7,1.7-18.6,6.1-20.1,8.2c-9.5,13.2,35.3,7.5,40.8,7
				c17.8-1.8,32.6-1.9,26.7-19.4c-5.5-16.3-3-19.9-18.6-15.3"/>
		</g>
		<g>
			<path fill="#4D5363" d="M1900.3,696.7c0,0,8.4,44.1,12.1,64.1c3.8,20,10.4,114.9,10.4,114.9l36.4,161.5l-23.1,5.1L1880,882.9
				l-25.3-109.5l-6.8-73.4L1900.3,696.7z"/>
		</g>
		<g>
			<path fill="#72482A" d="M1834.9,1036.7c-4.2,6.5-16.5,10.2-24.1,13.4c-3.9,1.4-19.1,4.5-20.7,6.5c-10.6,12.3,34.5,10.5,40.1,10.5
				c17.9-0.3,32.6,0.9,28.2-17.1c-4.1-16.7-1.4-20.1-17.2-16.8"/>
		</g>
		<g>
			<path fill="#545D77" d="M1901.3,694.1c0,0-3.8,47.5-8.4,68c-4.5,20.5-33.6,111.8-33.6,111.8l-0.1,168.2l-27-4.6l-16.6-174.2
				l17.3-112.8l6.9-64.1L1901.3,694.1z"/>
		</g>
		<g>
			<g>
				<polygon fill="#CCA183" points="1847.9,513.2 1857.4,543.3 1875.3,528.2 1862.9,495 				"/>
			</g>
			<g>
				<path fill="#F46E6E" d="M1877.3,521.5l23.8,38.5c0,0,1.2,3.9,1.5,9.1c0.3,5.2,4.6,125.1,4.6,125.1s-0.9,5.7-2.7,5.4
					c-1.8-0.3-67.6-1.8-67.6-1.8s-6.2-2.5-5.7-7.9c0.5-5.4,4.9-87,4.9-87l13-58.9L1877.3,521.5z"/>
			</g>
			<g>
				<path fill="#F46E6E" d="M1881,563.8l-33.1,66.3c0,0-26.2,42.5-30.2,44.6c-7.5,4.1-16.7-17.9-16.7-17.9s5.9-8.7,21.1-38.4
					c8.2-16,22.1-48.4,27.4-54.4c0,0,7.2-17.8,18.9-14.7C1880.2,552.4,1881,563.8,1881,563.8z"/>
			</g>
			<g>
				<path fill="#F2C39C" d="M1804.1,652.5l-55.3,70.5l0.2,0.2c-6.6,2.4-30.1,11.1-35.3,16.2l-1.1,7.8c5.5-0.8,3.6-2.4,5.5-0.8
					c1.9,1.5,2.1,5.5,7.3,8.2c9.4,5.1,8.5-0.4,13.7-1.3c11.1-2,21-23.6,21-23.6l-0.1-0.1c7.4-6.4,51.2-49.3,61.4-68.8"/>
			</g>
			<g>
				<g>
					<path fill="#72482A" d="M1836.7,448c6.8-2.6,0,0,2.3,12.9c2,11.7,7.2,15.1,7.2,15.1l9.2-16.9L1836.7,448z"/>
				</g>
				<g>
					<path fill="#F2C39C" d="M1866.1,501.2c-8.8,14.3-28.2,20.7-33.8,13.6c-7-8.8,0.7-26.3,1.9-35.3l9.8-21.8l20.8-1l14.8,8.1
						l5.8,24.2l-14.9,13.9L1866.1,501.2z"/>
				</g>
				<g>
					<path fill="#72482A" d="M1883.5,454.9c22.4,18.8,2.2,41.8-14.4,58.3c-13.6-41-7.5-28.6-4.8-40.8c2-9.1-15.7-11.8-22.7-17.3
						c0,0-4,0-4.8-5.3c-0.8-5.7-1.3-12.2,2.1-8.3c3.4,3.9,19.2,5.9,24,6.5C1876.2,449.6,1883.5,454.9,1883.5,454.9z"/>
				</g>
				<g>
					<path fill="#F2C39C" d="M1862.9,495c2.3-4.6,6.6-7,10.7-7.3c6,0.5-4.8,20.7-14.8,13.2"/>
				</g>
			</g>
			<g>
				<path fill="#F46E6E" d="M1761.9,738.5c9.3-7.9,49.9-47.6,62.8-71.7c11.3-21.1,3.5-23.1,3.5-23.1s-5.8-9.6-15.6-5.9
					c-5.1,1.9-12.9,14.4-12.9,14.4l-56,72.4"/>
			</g>
		</g>
	</g>
</g>
<g id="Layer_3">
</g>
</svg>
