<?xml version="1.0" encoding="utf-8"?>
<!-- Generator: Adobe Illustrator 22.0.1, SVG Export Plug-In . SVG Version: 6.00 Build 0)  -->
<svg version="1.1" id="Layer_1" xmlns="http://www.w3.org/2000/svg" xmlns:xlink="http://www.w3.org/1999/xlink" x="0px" y="0px"
	 viewBox="0 0 85 85" style="enable-background:new 0 0 85 85;" xml:space="preserve">
<style type="text/css">
	.st0{fill:#FFFFFF;}
</style>
<path class="st0" d="M80.75,7H4.25c-1.91,0-3.48,1.56-3.48,3.47v51.23c0,1.91,1.56,3.47,3.48,3.47h76.5c1.91,0,3.48-1.56,3.48-3.47
	V10.47C84.23,8.56,82.66,7,80.75,7z M5.7,14.62H78.4v42.62H5.7V14.62z M68.66,46.2c-0.68-2.19-1.53-4.38-2.54-6.24l2.2-5.06
	l-7.46-7.59l-5.08,2.19c-2.03-1.18-4.07-2.02-6.27-2.53l-2.03-5.23H36.8l-2.2,5.23c-2.2,0.67-4.41,1.52-6.27,2.53l-5.08-2.19
	l-7.46,7.59l2.2,5.06c-1.02,1.85-2.03,4.05-2.54,6.24l-5.25,2.02v5.23H29c0-0.84,0.17-1.69,0.34-2.7c0.17-0.51,0.17-0.84,0.34-1.18
	c0.34-1.18,0.85-2.19,1.53-3.2c0.17-0.17,0.17-0.34,0.34-0.51c0.34-0.51,0.85-1.01,1.36-1.52c0.68-0.67,1.19-1.18,1.86-1.52
	c0.17-0.17,0.51-0.34,0.68-0.34c0.17-0.17,0.34-0.17,0.51-0.34c0.68-0.34,1.53-0.67,2.2-0.84c0.34-0.17,0.85-0.17,1.19-0.34
	c1.69-0.34,3.56-0.34,5.25,0c0.51,0.17,0.85,0.17,1.19,0.34c0.85,0.17,1.53,0.51,2.2,0.84c0.34,0.17,0.51,0.34,0.85,0.51
	c0.85,0.51,1.69,1.18,2.37,1.85c0.34,0.34,0.68,0.84,1.02,1.18c0.17,0.34,0.51,0.51,0.68,0.84c0.68,1.01,1.19,2.19,1.53,3.2
	c0.17,0.34,0.17,0.84,0.34,1.18c0.17,0.84,0.34,1.69,0.34,2.7h18.81v-5.23L68.66,46.2z M26.42,65.18h31.82v9.55H26.42V65.18z
	 M16.85,74.73h51.12v2.26H16.85V74.73z"/>
</svg>
